<?xml version="1.0" encoding="UTF-8"?><svg id="Layer_1" xmlns="http://www.w3.org/2000/svg" xmlns:xlink="http://www.w3.org/1999/xlink" viewBox="0 0 418.99 366.61"><defs><style>.cls-1{fill:rgba(63,50,241,0);}.cls-2,.cls-3{fill:none;}.cls-4{opacity:.1;}.cls-4,.cls-5,.cls-6,.cls-7,.cls-8,.cls-9,.cls-10{fill:#3f32f1;}.cls-11{clip-path:url(#clippath);}.cls-12{fill:#bedae5;}.cls-13{fill:#c300ff;}.cls-14{fill:#192d38;}.cls-15{fill:rgba(63,50,241,.29);}.cls-16{fill:rgba(63,50,241,.14);}.cls-17{clip-path:url(#clippath-1);}.cls-6{opacity:.2;}.cls-3{stroke:#fff;stroke-miterlimit:10;stroke-width:2px;}.cls-7{opacity:.6;}.cls-8{opacity:.5;}.cls-9{opacity:.3;}.cls-10{opacity:.4;}</style><clipPath id="clippath"><rect class="cls-2" x="-634.44" width="418.99" height="366.61"/></clipPath><clipPath id="clippath-1"><rect class="cls-2" x="0" width="418.99" height="366.61"/></clipPath></defs><g class="cls-11"><path class="cls-1" d="m-497.83-375H69.2V192.03H-497.83V-375Z"/><path class="cls-16" d="m-467.99-345.16H39.36V162.19h-507.34v-507.34Z"/><path class="cls-15" d="m-438.14-315.31H9.52V132.34h-447.66v-447.66Z"/></g><rect class="cls-14" x="0" width="418.99" height="366.61"/><rect class="cls-13" x=".15" y=".15" width="50.62" height="50.62"/><path class="cls-3" d="m34.97,34.97L15.96,15.96m19.01,0l-19.01,19.01"/><g class="cls-17"><path class="cls-4" d="m115.81,95.56h-10.97c-3.82,0-7.66.29-11.44.85-3.47-.56-7-.85-10.5-.85h-10.97c-13.18,0-26.22,3.43-37.71,9.92-8.24,4.65-15.74,10.97-21.77,18.34-7.37,6.03-13.69,13.53-18.34,21.77-6.49,11.5-9.92,24.54-9.92,37.71v10.97c0,11.29,2.94,22.47,8.5,32.32,4.18,7.4,9.9,14.07,16.59,19.36,5.29,6.69,11.96,12.41,19.36,16.59,9.85,5.56,21.03,8.5,32.32,8.5h10.97c3.66,0,7.34-.26,10.97-.79,3.63.52,7.31.79,10.97.79,16.18,0,31.74-5.94,43.82-16.74,5.13-4.59,9.5-9.91,12.97-15.83,2.75-4.7,4.9-9.69,6.42-14.89,15.44-12.45,24.54-31.31,24.54-51.25v-10.97c0-36.29-29.52-65.81-65.81-65.81Zm54.84,76.78c0,17.88-8.78,34.6-23.24,44.81-2.48,11.14-8.4,21.28-17.02,28.99-10.07,9-23.03,13.95-36.51,13.95-3.67,0-7.35-.31-10.97-.92-3.62.61-7.3.92-10.97.92h-10.97c-9.41,0-18.72-2.45-26.93-7.09-6.57-3.71-12.39-8.82-16.94-14.86-6.03-4.54-11.15-10.36-14.86-16.94-4.64-8.21-7.09-17.52-7.09-26.93v-10.97c0-11.29,2.94-22.47,8.5-32.32,4.18-7.4,9.9-14.07,16.59-19.36,5.29-6.69,11.96-12.41,19.36-16.59,9.85-5.56,21.03-8.5,32.32-8.5h10.97c3.49,0,6.98.34,10.42,1.01,3.79-.67,7.65-1.01,11.52-1.01h10.97c30.24,0,54.84,24.6,54.84,54.84v10.97Z"/><path class="cls-4" d="m115.81,106.53h-10.97c-3.87,0-7.73.34-11.52,1.01-3.44-.67-6.93-1.01-10.42-1.01h-10.97c-11.29,0-22.47,2.94-32.32,8.5-7.4,4.18-14.07,9.9-19.36,16.59-6.69,5.29-12.41,11.96-16.59,19.36-5.56,9.85-8.5,21.03-8.5,32.32v10.97c0,9.41,2.45,18.72,7.09,26.93,3.71,6.57,8.82,12.39,14.86,16.94,4.54,6.03,10.36,11.15,16.94,14.86,8.21,4.64,17.52,7.09,26.93,7.09h10.97c3.67,0,7.35-.31,10.97-.92,3.62.61,7.3.92,10.97.92,13.48,0,26.45-4.95,36.51-13.95,8.62-7.7,14.55-17.85,17.02-28.99,14.46-10.21,23.24-26.93,23.24-44.81v-10.97c0-30.24-24.6-54.84-54.84-54.84Zm43.87,65.81c0,15.95-8.69,30.47-22.25,38.17-2.61,21.72-21.15,38.61-43.56,38.61-3.69,0-7.37-.37-10.97-1.11-3.6.74-7.28,1.11-10.97,1.11h-10.97c-7.52,0-14.97-1.96-21.54-5.67-5.75-3.25-10.71-7.76-14.47-13.16-5.39-3.76-9.91-8.72-13.16-14.47-3.71-6.57-5.67-14.02-5.67-21.54v-10.97c0-9.41,2.45-18.72,7.09-26.93,3.71-6.57,8.82-12.39,14.86-16.94,4.54-6.03,10.36-11.15,16.94-14.86,8.21-4.64,17.52-7.09,26.93-7.09h10.97c3.47,0,6.92.42,10.3,1.24,3.8-.82,7.7-1.24,11.64-1.24h10.97c24.19,0,43.87,19.68,43.87,43.87v10.97Z"/><path class="cls-6" d="m115.81,106.53h-10.97c-3.87,0-7.73.34-11.52,1.01-3.44-.67-6.93-1.01-10.42-1.01h-10.97c-11.29,0-22.47,2.94-32.32,8.5-7.4,4.18-14.07,9.9-19.36,16.59-6.69,5.29-12.41,11.96-16.59,19.36-5.56,9.85-8.5,21.03-8.5,32.32v10.97c0,9.41,2.45,18.72,7.09,26.93,3.71,6.57,8.82,12.39,14.86,16.94,4.54,6.03,10.36,11.15,16.94,14.86,8.21,4.64,17.52,7.09,26.93,7.09h10.97c3.67,0,7.35-.31,10.97-.92,3.62.61,7.3.92,10.97.92,13.48,0,26.45-4.95,36.51-13.95,8.62-7.7,14.55-17.85,17.02-28.99,14.46-10.21,23.24-26.93,23.24-44.81v-10.97c0-30.24-24.6-54.84-54.84-54.84Zm43.87,65.81c0,15.95-8.69,30.47-22.25,38.17-2.61,21.72-21.15,38.61-43.56,38.61-3.69,0-7.37-.37-10.97-1.11-3.6.74-7.28,1.11-10.97,1.11h-10.97c-7.52,0-14.97-1.96-21.54-5.67-5.75-3.25-10.71-7.76-14.47-13.16-5.39-3.76-9.91-8.72-13.16-14.47-3.71-6.57-5.67-14.02-5.67-21.54v-10.97c0-9.41,2.45-18.72,7.09-26.93,3.71-6.57,8.82-12.39,14.86-16.94,4.54-6.03,10.36-11.15,16.94-14.86,8.21-4.64,17.52-7.09,26.93-7.09h10.97c3.47,0,6.92.42,10.3,1.24,3.8-.82,7.7-1.24,11.64-1.24h10.97c24.19,0,43.87,19.68,43.87,43.87v10.97Z"/><path class="cls-4" d="m115.81,117.5h-10.97c-3.93,0-7.83.42-11.64,1.24-3.38-.82-6.83-1.24-10.3-1.24h-10.97c-9.41,0-18.72,2.45-26.93,7.09-6.57,3.71-12.39,8.82-16.94,14.86-6.03,4.54-11.15,10.36-14.86,16.94-4.64,8.21-7.09,17.52-7.09,26.93v10.97c0,7.52,1.96,14.97,5.67,21.54,3.25,5.75,7.76,10.71,13.16,14.47,3.76,5.39,8.72,9.91,14.47,13.16,6.57,3.71,14.02,5.67,21.54,5.67h10.97c3.69,0,7.37-.37,10.97-1.11,3.6.74,7.28,1.11,10.97,1.11,22.41,0,40.95-16.89,43.56-38.61,13.56-7.7,22.25-22.23,22.25-38.17v-10.97c0-24.19-19.68-43.87-43.87-43.87Zm32.9,54.84c0,14.3-9.17,26.5-21.94,31.03v1.88c0,18.14-14.76,32.9-32.9,32.9-3.72,0-7.39-.47-10.97-1.39-3.58.93-7.25,1.39-10.97,1.39h-10.97c-11.53,0-22.16-6.08-28.09-15.78-9.7-5.93-15.78-16.56-15.78-28.09v-10.97c0-7.52,1.96-14.97,5.67-21.54,3.25-5.75,7.76-10.71,13.16-14.47,3.76-5.39,8.72-9.91,14.47-13.16,6.57-3.71,14.02-5.67,21.54-5.67h10.97c3.42,0,6.85.55,10.12,1.61,3.82-1.07,7.78-1.61,11.82-1.61h10.97c18.14,0,32.9,14.76,32.9,32.9v10.97Z"/><path class="cls-6" d="m115.81,117.5h-10.97c-3.93,0-7.83.42-11.64,1.24-3.38-.82-6.83-1.24-10.3-1.24h-10.97c-9.41,0-18.72,2.45-26.93,7.09-6.57,3.71-12.39,8.82-16.94,14.86-6.03,4.54-11.15,10.36-14.86,16.94-4.64,8.21-7.09,17.52-7.09,26.93v10.97c0,7.52,1.96,14.97,5.67,21.54,3.25,5.75,7.76,10.71,13.16,14.47,3.76,5.39,8.72,9.91,14.47,13.16,6.57,3.71,14.02,5.67,21.54,5.67h10.97c3.69,0,7.37-.37,10.97-1.11,3.6.74,7.28,1.11,10.97,1.11,22.41,0,40.95-16.89,43.56-38.61,13.56-7.7,22.25-22.23,22.25-38.17v-10.97c0-24.19-19.68-43.87-43.87-43.87Zm32.9,54.84c0,14.3-9.17,26.5-21.94,31.03v1.88c0,18.14-14.76,32.9-32.9,32.9-3.72,0-7.39-.47-10.97-1.39-3.58.93-7.25,1.39-10.97,1.39h-10.97c-11.53,0-22.16-6.08-28.09-15.78-9.7-5.93-15.78-16.56-15.78-28.09v-10.97c0-7.52,1.96-14.97,5.67-21.54,3.25-5.75,7.76-10.71,13.16-14.47,3.76-5.39,8.72-9.91,14.47-13.16,6.57-3.71,14.02-5.67,21.54-5.67h10.97c3.42,0,6.85.55,10.12,1.61,3.82-1.07,7.78-1.61,11.82-1.61h10.97c18.14,0,32.9,14.76,32.9,32.9v10.97Z"/><path class="cls-6" d="m115.81,117.5h-10.97c-3.93,0-7.83.42-11.64,1.24-3.38-.82-6.83-1.24-10.3-1.24h-10.97c-9.41,0-18.72,2.45-26.93,7.09-6.57,3.71-12.39,8.82-16.94,14.86-6.03,4.54-11.15,10.36-14.86,16.94-4.64,8.21-7.09,17.52-7.09,26.93v10.97c0,7.52,1.96,14.97,5.67,21.54,3.25,5.75,7.76,10.71,13.16,14.47,3.76,5.39,8.72,9.91,14.47,13.16,6.57,3.71,14.02,5.67,21.54,5.67h10.97c3.69,0,7.37-.37,10.97-1.11,3.6.74,7.28,1.11,10.97,1.11,22.41,0,40.95-16.89,43.56-38.61,13.56-7.7,22.25-22.23,22.25-38.17v-10.97c0-24.19-19.68-43.87-43.87-43.87Zm32.9,54.84c0,14.3-9.17,26.5-21.94,31.03v1.88c0,18.14-14.76,32.9-32.9,32.9-3.72,0-7.39-.47-10.97-1.39-3.58.93-7.25,1.39-10.97,1.39h-10.97c-11.53,0-22.16-6.08-28.09-15.78-9.7-5.93-15.78-16.56-15.78-28.09v-10.97c0-7.52,1.96-14.97,5.67-21.54,3.25-5.75,7.76-10.71,13.16-14.47,3.76-5.39,8.72-9.91,14.47-13.16,6.57-3.71,14.02-5.67,21.54-5.67h10.97c3.42,0,6.85.55,10.12,1.61,3.82-1.07,7.78-1.61,11.82-1.61h10.97c18.14,0,32.9,14.76,32.9,32.9v10.97Z"/><path class="cls-4" d="m115.81,128.47h-10.97c-4.04,0-8,.54-11.82,1.61-3.27-1.06-6.7-1.61-10.12-1.61h-10.97c-7.52,0-14.97,1.96-21.54,5.67-5.75,3.25-10.71,7.76-14.47,13.16-5.39,3.76-9.91,8.72-13.16,14.47-3.71,6.57-5.67,14.02-5.67,21.54v10.97c0,11.53,6.08,22.16,15.78,28.09,5.93,9.7,16.56,15.78,28.09,15.78h10.97c3.72,0,7.39-.47,10.97-1.39,3.58.93,7.25,1.39,10.97,1.39,18.14,0,32.9-14.76,32.9-32.9v-1.88c12.77-4.53,21.94-16.73,21.94-31.03v-10.97c0-18.14-14.76-32.9-32.9-32.9Zm21.94,43.87c0,12.1-9.84,21.94-21.94,21.94v10.97c0,12.1-9.84,21.94-21.94,21.94-3.75,0-7.46-.64-10.97-1.88-3.51,1.24-7.22,1.88-10.97,1.88h-10.97c-8.88,0-16.55-5.3-19.99-12.91-7.61-3.45-12.91-11.11-12.91-19.99v-10.97c0-11.53,6.08-22.16,15.78-28.09,5.93-9.7,16.56-15.78,28.09-15.78h10.97c3.43,0,6.77.82,9.78,2.32,3.83-1.53,7.93-2.32,12.15-2.32h10.97c12.1,0,21.94,9.84,21.94,21.94v10.97Z"/><path class="cls-6" d="m115.81,128.47h-10.97c-4.04,0-8,.54-11.82,1.61-3.27-1.06-6.7-1.61-10.12-1.61h-10.97c-7.52,0-14.97,1.96-21.54,5.67-5.75,3.25-10.71,7.76-14.47,13.16-5.39,3.76-9.91,8.72-13.16,14.47-3.71,6.57-5.67,14.02-5.67,21.54v10.97c0,11.53,6.08,22.16,15.78,28.09,5.93,9.7,16.56,15.78,28.09,15.78h10.97c3.72,0,7.39-.47,10.97-1.39,3.58.93,7.25,1.39,10.97,1.39,18.14,0,32.9-14.76,32.9-32.9v-1.88c12.77-4.53,21.94-16.73,21.94-31.03v-10.97c0-18.14-14.76-32.9-32.9-32.9Zm21.94,43.87c0,12.1-9.84,21.94-21.94,21.94v10.97c0,12.1-9.84,21.94-21.94,21.94-3.75,0-7.46-.64-10.97-1.88-3.51,1.24-7.22,1.88-10.97,1.88h-10.97c-8.88,0-16.55-5.3-19.99-12.91-7.61-3.45-12.91-11.11-12.91-19.99v-10.97c0-11.53,6.08-22.16,15.78-28.09,5.93-9.7,16.56-15.78,28.09-15.78h10.97c3.43,0,6.77.82,9.78,2.32,3.83-1.53,7.93-2.32,12.15-2.32h10.97c12.1,0,21.94,9.84,21.94,21.94v10.97Z"/><path class="cls-9" d="m115.81,128.47h-10.97c-4.04,0-8,.54-11.82,1.61-3.27-1.06-6.7-1.61-10.12-1.61h-10.97c-7.52,0-14.97,1.96-21.54,5.67-5.75,3.25-10.71,7.76-14.47,13.16-5.39,3.76-9.91,8.72-13.16,14.47-3.71,6.57-5.67,14.02-5.67,21.54v10.97c0,11.53,6.08,22.16,15.78,28.09,5.93,9.7,16.56,15.78,28.09,15.78h10.97c3.72,0,7.39-.47,10.97-1.39,3.58.93,7.25,1.39,10.97,1.39,18.14,0,32.9-14.76,32.9-32.9v-1.88c12.77-4.53,21.94-16.73,21.94-31.03v-10.97c0-18.14-14.76-32.9-32.9-32.9Zm21.94,43.87c0,12.1-9.84,21.94-21.94,21.94v10.97c0,12.1-9.84,21.94-21.94,21.94-3.75,0-7.46-.64-10.97-1.88-3.51,1.24-7.22,1.88-10.97,1.88h-10.97c-8.88,0-16.55-5.3-19.99-12.91-7.61-3.45-12.91-11.11-12.91-19.99v-10.97c0-11.53,6.08-22.16,15.78-28.09,5.93-9.7,16.56-15.78,28.09-15.78h10.97c3.43,0,6.77.82,9.78,2.32,3.83-1.53,7.93-2.32,12.15-2.32h10.97c12.1,0,21.94,9.84,21.94,21.94v10.97Z"/><path class="cls-9" d="m115.81,128.47h-10.97c-4.04,0-8,.54-11.82,1.61-3.27-1.06-6.7-1.61-10.12-1.61h-10.97c-7.52,0-14.97,1.96-21.54,5.67-5.75,3.25-10.71,7.76-14.47,13.16-5.39,3.76-9.91,8.72-13.16,14.47-3.71,6.57-5.67,14.02-5.67,21.54v10.97c0,11.53,6.08,22.16,15.78,28.09,5.93,9.7,16.56,15.78,28.09,15.78h10.97c3.72,0,7.39-.47,10.97-1.39,3.58.93,7.25,1.39,10.97,1.39,18.14,0,32.9-14.76,32.9-32.9v-1.88c12.77-4.53,21.94-16.73,21.94-31.03v-10.97c0-18.14-14.76-32.9-32.9-32.9Zm21.94,43.87c0,12.1-9.84,21.94-21.94,21.94v10.97c0,12.1-9.84,21.94-21.94,21.94-3.75,0-7.46-.64-10.97-1.88-3.51,1.24-7.22,1.88-10.97,1.88h-10.97c-8.88,0-16.55-5.3-19.99-12.91-7.61-3.45-12.91-11.11-12.91-19.99v-10.97c0-11.53,6.08-22.16,15.78-28.09,5.93-9.7,16.56-15.78,28.09-15.78h10.97c3.43,0,6.77.82,9.78,2.32,3.83-1.53,7.93-2.32,12.15-2.32h10.97c12.1,0,21.94,9.84,21.94,21.94v10.97Z"/><path class="cls-4" d="m115.81,139.43h-10.97c-4.22,0-8.32.79-12.15,2.32-3.01-1.5-6.36-2.32-9.78-2.32h-10.97c-11.53,0-22.16,6.08-28.09,15.78-9.7,5.93-15.78,16.56-15.78,28.09v10.97c0,8.88,5.3,16.55,12.91,19.99,3.45,7.61,11.11,12.91,19.99,12.91h10.97c3.75,0,7.46-.64,10.97-1.88,3.51,1.24,7.22,1.88,10.97,1.88,12.1,0,21.94-9.84,21.94-21.94v-10.97c12.1,0,21.94-9.84,21.94-21.94v-10.97c0-12.1-9.84-21.94-21.94-21.94Zm10.97,32.9c0,6.06-4.91,10.97-10.97,10.97h-10.97v21.94c0,6.06-4.91,10.97-10.97,10.97-3.99,0-7.74-1.07-10.97-2.94-3.23,1.87-6.98,2.94-10.97,2.94h-10.97c-6.06,0-10.97-4.91-10.97-10.97-6.06,0-10.97-4.91-10.97-10.97v-10.97c0-8.88,5.3-16.55,12.91-19.99,3.45-7.61,11.11-12.91,19.99-12.91h10.97c3.59,0,6.78,1.73,8.78,4.39,3.67-2.76,8.22-4.39,13.16-4.39h10.97c6.06,0,10.97,4.91,10.97,10.97v10.97Z"/><path class="cls-6" d="m115.81,139.43h-10.97c-4.22,0-8.32.79-12.15,2.32-3.01-1.5-6.36-2.32-9.78-2.32h-10.97c-11.53,0-22.16,6.08-28.09,15.78-9.7,5.93-15.78,16.56-15.78,28.09v10.97c0,8.88,5.3,16.55,12.91,19.99,3.45,7.61,11.11,12.91,19.99,12.91h10.97c3.75,0,7.46-.64,10.97-1.88,3.51,1.24,7.22,1.88,10.97,1.88,12.1,0,21.94-9.84,21.94-21.94v-10.97c12.1,0,21.94-9.84,21.94-21.94v-10.97c0-12.1-9.84-21.94-21.94-21.94Zm10.97,32.9c0,6.06-4.91,10.97-10.97,10.97h-10.97v21.94c0,6.06-4.91,10.97-10.97,10.97-3.99,0-7.74-1.07-10.97-2.94-3.23,1.87-6.98,2.94-10.97,2.94h-10.97c-6.06,0-10.97-4.91-10.97-10.97-6.06,0-10.97-4.91-10.97-10.97v-10.97c0-8.88,5.3-16.55,12.91-19.99,3.45-7.61,11.11-12.91,19.99-12.91h10.97c3.59,0,6.78,1.73,8.78,4.39,3.67-2.76,8.22-4.39,13.16-4.39h10.97c6.06,0,10.97,4.91,10.97,10.97v10.97Z"/><path class="cls-9" d="m115.81,139.43h-10.97c-4.22,0-8.32.79-12.15,2.32-3.01-1.5-6.36-2.32-9.78-2.32h-10.97c-11.53,0-22.16,6.08-28.09,15.78-9.7,5.93-15.78,16.56-15.78,28.09v10.97c0,8.88,5.3,16.55,12.91,19.99,3.45,7.61,11.11,12.91,19.99,12.91h10.97c3.75,0,7.46-.64,10.97-1.88,3.51,1.24,7.22,1.88,10.97,1.88,12.1,0,21.94-9.84,21.94-21.94v-10.97c12.1,0,21.94-9.84,21.94-21.94v-10.97c0-12.1-9.84-21.94-21.94-21.94Zm10.97,32.9c0,6.06-4.91,10.97-10.97,10.97h-10.97v21.94c0,6.06-4.91,10.97-10.97,10.97-3.99,0-7.74-1.07-10.97-2.94-3.23,1.87-6.98,2.94-10.97,2.94h-10.97c-6.06,0-10.97-4.91-10.97-10.97-6.06,0-10.97-4.91-10.97-10.97v-10.97c0-8.88,5.3-16.55,12.91-19.99,3.45-7.61,11.11-12.91,19.99-12.91h10.97c3.59,0,6.78,1.73,8.78,4.39,3.67-2.76,8.22-4.39,13.16-4.39h10.97c6.06,0,10.97,4.91,10.97,10.97v10.97Z"/><path class="cls-10" d="m115.81,139.43h-10.97c-4.22,0-8.32.79-12.15,2.32-3.01-1.5-6.36-2.32-9.78-2.32h-10.97c-11.53,0-22.16,6.08-28.09,15.78-9.7,5.93-15.78,16.56-15.78,28.09v10.97c0,8.88,5.3,16.55,12.91,19.99,3.45,7.61,11.11,12.91,19.99,12.91h10.97c3.75,0,7.46-.64,10.97-1.88,3.51,1.24,7.22,1.88,10.97,1.88,12.1,0,21.94-9.84,21.94-21.94v-10.97c12.1,0,21.94-9.84,21.94-21.94v-10.97c0-12.1-9.84-21.94-21.94-21.94Zm10.97,32.9c0,6.06-4.91,10.97-10.97,10.97h-10.97v21.94c0,6.06-4.91,10.97-10.97,10.97-3.99,0-7.74-1.07-10.97-2.94-3.23,1.87-6.98,2.94-10.97,2.94h-10.97c-6.06,0-10.97-4.91-10.97-10.97-6.06,0-10.97-4.91-10.97-10.97v-10.97c0-8.88,5.3-16.55,12.91-19.99,3.45-7.61,11.11-12.91,19.99-12.91h10.97c3.59,0,6.78,1.73,8.78,4.39,3.67-2.76,8.22-4.39,13.16-4.39h10.97c6.06,0,10.97,4.91,10.97,10.97v10.97Z"/><path class="cls-7" d="m115.81,139.43h-10.97c-4.22,0-8.32.79-12.15,2.32-3.01-1.5-6.36-2.32-9.78-2.32h-10.97c-11.53,0-22.16,6.08-28.09,15.78-9.7,5.93-15.78,16.56-15.78,28.09v10.97c0,8.88,5.3,16.55,12.91,19.99,3.45,7.61,11.11,12.91,19.99,12.91h10.97c3.75,0,7.46-.64,10.97-1.88,3.51,1.24,7.22,1.88,10.97,1.88,12.1,0,21.94-9.84,21.94-21.94v-10.97c12.1,0,21.94-9.84,21.94-21.94v-10.97c0-12.1-9.84-21.94-21.94-21.94Zm10.97,32.9c0,6.06-4.91,10.97-10.97,10.97h-10.97v21.94c0,6.06-4.91,10.97-10.97,10.97-3.99,0-7.74-1.07-10.97-2.94-3.23,1.87-6.98,2.94-10.97,2.94h-10.97c-6.06,0-10.97-4.91-10.97-10.97-6.06,0-10.97-4.91-10.97-10.97v-10.97c0-8.88,5.3-16.55,12.91-19.99,3.45-7.61,11.11-12.91,19.99-12.91h10.97c3.59,0,6.78,1.73,8.78,4.39,3.67-2.76,8.22-4.39,13.16-4.39h10.97c6.06,0,10.97,4.91,10.97,10.97v10.97Z"/><rect class="cls-4" x="60.97" y="172.34" width="21.94" height="21.94"/><rect class="cls-6" x="60.97" y="172.34" width="21.94" height="21.94"/><rect class="cls-9" x="60.97" y="172.34" width="21.94" height="21.94"/><rect class="cls-10" x="60.97" y="172.34" width="21.94" height="21.94"/><rect class="cls-8" x="60.97" y="172.34" width="21.94" height="21.94"/><rect class="cls-7" x="60.97" y="172.34" width="21.94" height="21.94"/><path class="cls-4" d="m115.81,150.4h-10.97c-4.93,0-9.49,1.64-13.16,4.39-2-2.67-5.19-4.39-8.78-4.39h-10.97c-8.88,0-16.55,5.3-19.99,12.91-7.61,3.45-12.91,11.11-12.91,19.99v10.97c0,6.06,4.91,10.97,10.97,10.97,0,6.06,4.91,10.97,10.97,10.97h10.97c3.99,0,7.74-1.07,10.97-2.94,3.23,1.87,6.98,2.94,10.97,2.94,6.06,0,10.97-4.91,10.97-10.97v-21.94h10.97c6.06,0,10.97-4.91,10.97-10.97v-10.97c0-6.06-4.91-10.97-10.97-10.97Zm0,21.94h-21.94v32.9h0c-6.06,0-10.97-4.91-10.97-10.97,0,6.06-4.91,10.97-10.97,10.97h-10.97v-10.97h-10.97v-10.97c0-6.06,4.91-10.97,10.97-10.97h0c0-6.06,4.91-10.97,10.97-10.97h10.97v10.97h10.97c0-6.06,4.91-10.97,10.97-10.97h10.97v10.97Z"/><path class="cls-6" d="m115.81,150.4h-10.97c-4.93,0-9.49,1.64-13.16,4.39-2-2.67-5.19-4.39-8.78-4.39h-10.97c-8.88,0-16.55,5.3-19.99,12.91-7.61,3.45-12.91,11.11-12.91,19.99v10.97c0,6.06,4.91,10.97,10.97,10.97,0,6.06,4.91,10.97,10.97,10.97h10.97c3.99,0,7.74-1.07,10.97-2.94,3.23,1.87,6.98,2.94,10.97,2.94,6.06,0,10.97-4.91,10.97-10.97v-21.94h10.97c6.06,0,10.97-4.91,10.97-10.97v-10.97c0-6.06-4.91-10.97-10.97-10.97Zm0,21.94h-21.94v32.9h0c-6.06,0-10.97-4.91-10.97-10.97,0,6.06-4.91,10.97-10.97,10.97h-10.97v-10.97h-10.97v-10.97c0-6.06,4.91-10.97,10.97-10.97h0c0-6.06,4.91-10.97,10.97-10.97h10.97v10.97h10.97c0-6.06,4.91-10.97,10.97-10.97h10.97v10.97Z"/><path class="cls-9" d="m115.81,150.4h-10.97c-4.93,0-9.49,1.64-13.16,4.39-2-2.67-5.19-4.39-8.78-4.39h-10.97c-8.88,0-16.55,5.3-19.99,12.91-7.61,3.45-12.91,11.11-12.91,19.99v10.97c0,6.06,4.91,10.97,10.97,10.97,0,6.06,4.91,10.97,10.97,10.97h10.97c3.99,0,7.74-1.07,10.97-2.94,3.23,1.87,6.98,2.94,10.97,2.94,6.06,0,10.97-4.91,10.97-10.97v-21.94h10.97c6.06,0,10.97-4.91,10.97-10.97v-10.97c0-6.06-4.91-10.97-10.97-10.97Zm0,21.94h-21.94v32.9h0c-6.06,0-10.97-4.91-10.97-10.97,0,6.06-4.91,10.97-10.97,10.97h-10.97v-10.97h-10.97v-10.97c0-6.06,4.91-10.97,10.97-10.97h0c0-6.06,4.91-10.97,10.97-10.97h10.97v10.97h10.97c0-6.06,4.91-10.97,10.97-10.97h10.97v10.97Z"/><path class="cls-10" d="m115.81,150.4h-10.97c-4.93,0-9.49,1.64-13.16,4.39-2-2.67-5.19-4.39-8.78-4.39h-10.97c-8.88,0-16.55,5.3-19.99,12.91-7.61,3.45-12.91,11.11-12.91,19.99v10.97c0,6.06,4.91,10.97,10.97,10.97,0,6.06,4.91,10.97,10.97,10.97h10.97c3.99,0,7.74-1.07,10.97-2.94,3.23,1.87,6.98,2.94,10.97,2.94,6.06,0,10.97-4.91,10.97-10.97v-21.94h10.97c6.06,0,10.97-4.91,10.97-10.97v-10.97c0-6.06-4.91-10.97-10.97-10.97Zm0,21.94h-21.94v32.9h0c-6.06,0-10.97-4.91-10.97-10.97,0,6.06-4.91,10.97-10.97,10.97h-10.97v-10.97h-10.97v-10.97c0-6.06,4.91-10.97,10.97-10.97h0c0-6.06,4.91-10.97,10.97-10.97h10.97v10.97h10.97c0-6.06,4.91-10.97,10.97-10.97h10.97v10.97Z"/><path class="cls-8" d="m115.81,150.4h-10.97c-4.93,0-9.49,1.64-13.16,4.39-2-2.67-5.19-4.39-8.78-4.39h-10.97c-8.88,0-16.55,5.3-19.99,12.91-7.61,3.45-12.91,11.11-12.91,19.99v10.97c0,6.06,4.91,10.97,10.97,10.97,0,6.06,4.91,10.97,10.97,10.97h10.97c3.99,0,7.74-1.07,10.97-2.94,3.23,1.87,6.98,2.94,10.97,2.94,6.06,0,10.97-4.91,10.97-10.97v-21.94h10.97c6.06,0,10.97-4.91,10.97-10.97v-10.97c0-6.06-4.91-10.97-10.97-10.97Zm0,21.94h-21.94v32.9h0c-6.06,0-10.97-4.91-10.97-10.97,0,6.06-4.91,10.97-10.97,10.97h-10.97v-10.97h-10.97v-10.97c0-6.06,4.91-10.97,10.97-10.97h0c0-6.06,4.91-10.97,10.97-10.97h10.97v10.97h10.97c0-6.06,4.91-10.97,10.97-10.97h10.97v10.97Z"/><path class="cls-5" d="m115.81,150.4h-10.97c-4.93,0-9.49,1.64-13.16,4.39-2-2.67-5.19-4.39-8.78-4.39h-10.97c-8.88,0-16.55,5.3-19.99,12.91-7.61,3.45-12.91,11.11-12.91,19.99v10.97c0,6.06,4.91,10.97,10.97,10.97,0,6.06,4.91,10.97,10.97,10.97h10.97c3.99,0,7.74-1.07,10.97-2.94,3.23,1.87,6.98,2.94,10.97,2.94,6.06,0,10.97-4.91,10.97-10.97v-21.94h10.97c6.06,0,10.97-4.91,10.97-10.97v-10.97c0-6.06-4.91-10.97-10.97-10.97Zm0,21.94h-21.94v32.9h0c-6.06,0-10.97-4.91-10.97-10.97,0,6.06-4.91,10.97-10.97,10.97h-10.97v-10.97h-10.97v-10.97c0-6.06,4.91-10.97,10.97-10.97h0c0-6.06,4.91-10.97,10.97-10.97h10.97v10.97h10.97c0-6.06,4.91-10.97,10.97-10.97h10.97v10.97Z"/><path class="cls-12" d="m368.93,205.86c6.96,0,10.52-2.9,10.52-8.1v-.15c0-3.53-1.85-6.33-6.96-6.87l-6.43-.69c-1.85-.2-2.73-1.13-2.73-2.85v-1.52c0-.54.34-.88.88-.88h8.33c.54,0,.88.34.88.88v2.8h5.7c-.34-5.06-3.6-8.05-10.76-8.05-6.62,0-10.37,2.65-10.37,7.71v.1c0,3.73,2.44,6.38,6.28,6.77l7.21.74c1.8.2,2.63,1.18,2.63,2.95v1.91c0,.54-.34.83-.83.83h-8.91c-.49,0-.83-.29-.83-.83v-2.8h-5.99c.15,5.01,3.9,8.05,11.4,8.05m-21.04-27.49h6.19v-5.99h-6.19v5.99Zm.1,27h5.99v-24.45h-5.99v24.45Zm-10.47,0h5.99v-32.99h-5.99v32.99Zm-20.84-4.76v-5.89h10.67v6.73h-9.79c-.54,0-.88-.29-.88-.83m2.92,5.25c3.51,0,6.48-1.42,7.74-4.37v3.83h5.94v-17.13c0-5.2-4.24-7.76-10.57-7.76s-11.4,2.8-11.49,8.3h5.45v-3.04c0-.54.34-.88.88-.88h8.91c.54,0,.88.34.88.88v5.5h-9.16c-4.77,0-7.7,2.7-7.7,7.07,0,5.01,3.9,7.61,9.11,7.61m-26.1-27.74h4.58l3.85-5.74h-6.62l-1.8,5.74Zm-3.36,13.06v-5.5c0-.54.29-.88.83-.88h10.08c.54,0,.83.34.83.88v5.5h-11.74Zm6.04,14.68c6.77,0,10.62-3.88,11.54-8.49h-5.99v3.24c0,.54-.29.83-.83.83h-9.94c-.54,0-.83-.29-.83-.83v-5.89h17.73v-2.21c0-3.44-.83-6.33-2.53-8.39-1.95-2.41-5.31-3.68-9.25-3.68s-7.45,1.18-9.5,3.63c-1.85,2.11-2.78,5.15-2.78,8.93v.29c0,3.83.88,6.77,2.78,8.93,2.09,2.41,5.5,3.63,9.59,3.63m-35.21-19v-8.89c0-.49.29-.79.78-.79h12.32c.49,0,.73.29.73.79v9.92c-.63-.15-1.41-.2-2.39-.2h-10.67c-.49,0-.78-.29-.78-.83m-5.99,18.51h5.99v-12.27c0-.49.29-.79.78-.79h10.23l5.07,13.06h6.43l-5.5-13.84c-.88-2.21-1.61-3.14-2.92-3.53,4.72-1.91,5.99-4.47,5.99-7.51,0-5.06-3.46-8.1-9.79-8.1h-16.27v32.99Zm-15.44.49c6.96,0,10.52-2.9,10.52-8.1v-.15c0-3.53-1.85-6.33-6.96-6.87l-6.43-.69c-1.85-.2-2.73-1.13-2.73-2.85v-1.52c0-.54.34-.88.88-.88h8.33c.54,0,.88.34.88.88v2.8h5.7c-.34-5.06-3.6-8.05-10.76-8.05-6.62,0-10.37,2.65-10.37,7.71v.1c0,3.73,2.44,6.38,6.28,6.77l7.21.74c1.8.2,2.63,1.18,2.63,2.95v1.91c0,.54-.34.83-.83.83h-8.91c-.49,0-.83-.29-.83-.83v-2.8h-5.99c.15,5.01,3.9,8.05,11.4,8.05m-36.77-.49h5.99v-19.98h9.16c.54,0,.88.34.88.83v19.15h5.99v-17.92c0-4.22-3.02-6.97-8.04-6.97-3.99,0-6.67,1.77-7.99,4.81v-4.37h-5.99v24.45Zm-10.57-27h6.19v-5.99h-6.19v5.99Zm.1,27h5.99v-24.45h-5.99v24.45Zm-19.24,0v-13.06l9.98,13.06h6.87l-9.89-12.81c-.29-.39-.29-.74.05-1.08l9.74-10.55h-6.53l-10.23,11.29v-19.83h-5.99v32.99h5.99Zm-15.44-31.61h-5.94v6.28c0,.54-.34.88-.83.88h-3.65v4.22h4.43v13.79c0,4.12,2.44,6.43,6.72,6.43h5.11v-4.27h-4.97c-.54,0-.88-.34-.88-.88v-15.07h5.84v-4.22h-5.84v-7.17Zm-31.27,17.48l5.7-18.61,5.7,18.61h-11.4Zm-.34-16.45l-10.37,30.58h6.38l2.87-9.43h14.32l2.87,9.43h6.48l-10.28-30.58c-.63-1.82-1.46-2.41-2.92-2.41h-6.48c-1.46,0-2.24.59-2.87,2.41"/><path class="cls-12" d="m71.91,161.37h10.9v11.02h-21.88v-.05c0-6.06,4.92-10.97,10.97-10.97Z"/><path class="cls-12" d="m60.94,172.4h0v22.05h-10.94v-11.11c0-6.04,4.9-10.94,10.94-10.94Z"/><path class="cls-12" d="m60.94,194.45h21.88v.05c0,6.06-4.92,10.97-10.97,10.97h-10.9v-11.02h0Z"/><path class="cls-12" d="m104.73,161.37h10.9v11.02h-21.88v-.05c0-6.06,4.92-10.97,10.97-10.97Z"/><path class="cls-12" d="m82.82,172.4h10.94v33.07h0c-6.04,0-10.94-4.9-10.94-10.94v-22.14h0Z"/></g></svg>